<svg width="533" height="379" xmlns="http://www.w3.org/2000/svg" xmlns:xlink="http://www.w3.org/1999/xlink" overflow="hidden"><defs><clipPath id="clip0"><path d="M261 133 794 133 794 512 261 512Z" fill-rule="evenodd" clip-rule="evenodd"/></clipPath></defs><g clip-path="url(#clip0)" transform="translate(-261 -133)"><path d="M262 171.5C262 151.342 278.789 135 299.5 135 320.211 135 337 151.342 337 171.5 337 191.658 320.211 208 299.5 208 278.789 208 262 191.658 262 171.5Z" fill="#7F7F7F" fill-rule="evenodd"/><path d="M262 322.5C262 302.342 278.789 286 299.5 286 320.211 286 337 302.342 337 322.5 337 342.658 320.211 359 299.5 359 278.789 359 262 342.658 262 322.5Z" fill="#7F7F7F" fill-rule="evenodd"/><path d="M262 474.5C262 454.342 278.789 438 299.5 438 320.211 438 337 454.342 337 474.5 337 494.658 320.211 511 299.5 511 278.789 511 262 494.658 262 474.5Z" fill="#7F7F7F" fill-rule="evenodd"/><path d="M413 146.167C413 139.447 418.447 134 425.167 134L780.833 134C787.553 134 793 139.447 793 146.167L793 194.833C793 201.553 787.553 207 780.833 207L425.167 207C418.447 207 413 201.553 413 194.833Z" fill="#7F7F7F" fill-rule="evenodd"/><path d="M413 298.333C413 291.522 418.522 286 425.333 286L780.667 286C787.478 286 793 291.522 793 298.333L793 347.667C793 354.478 787.478 360 780.667 360L425.333 360C418.522 360 413 354.478 413 347.667Z" fill="#7F7F7F" fill-rule="evenodd"/><path d="M413 450.167C413 443.447 418.447 438 425.167 438L780.833 438C787.553 438 793 443.447 793 450.167L793 498.833C793 505.553 787.553 511 780.833 511L425.167 511C418.447 511 413 505.553 413 498.833Z" fill="#7F7F7F" fill-rule="evenodd"/></g></svg>